# xmcd CD database file
#
# Track frame offsets:
#	150
#	13142
#	26280
#	41447
#	54907
#	68630
#	82115
#	94512
#	108632
#	123190
#	137247
#	152452
#	164050
#	177857
#	191502
#	206967
#	220600
#	235387
#	248552
#	262262
#	276810
#	290735
#
# Disc length: 4056 seconds
#
# Revision: 4
# Processed by: cddbd v1.5PL3 Copyright (c) Steve Scherf et al.
# Submitted via: CDex 1.51
#
DISCID=3e0fd616
DTITLE=Various Artist - Songs Of The Depression - Boom, Bust and The New Deal - CD2
DYEAR=1998
DGENRE=Jazz
TTITLE0=Vincent Rose and His Orchestra: There's No Depression In Love [1931]
TTITLE1=Victor Young and His Orchestra: Now's The Time To Fall In Love [1931]
TTITLE2=Lee Morse: I'm An Unemployed Sweetheart [1931]
TTITLE3=Emil Coleman and His Orchestra: I Got Five Dollars [1931]
TTITLE4=Paul Specht and His Orchestra: I Found A Million Dollar Baby [1931]
TTITLE5=Eddie Droesch and His Orchestra: Last Dollar [1931]
TTITLE6=Chick Bullock and His Levee Loungers: Here It Is Monday And I've Still Got A Dollar [1932]
TTITLE7=Mildred Bailey: Wrap Your Troubles In Dreams [1931]
TTITLE8=Sam Lanin and His Orchestra: Whistling In the Dark [1931]
TTITLE9=Ben Selvin and His Orchestra: Dancing In the Dark [1931]
TTITLE10=Victor Young and His Orchestra: Alone Together [1932]
TTITLE11=The Mills Brothers, Connie Boswell, Bing Crosby, The Boswell Sisters: Life Is Just A Bowl Of Cherries [1931]
TTITLE12=The Boswell Sisters: (We've Got To) Put That Sun Back In The Sky [1932]
TTITLE13=Ambrose and His Orchestra: Shoo The Hoodoo Away [1930]
TTITLE14=Ben Selvin and His Orchestra: Whistle And Blow Your Blues Away [1932]
TTITLE15=Ted Lewis and His Orchestra: Headin' For Better Times [1931]
TTITLE16=Enric Madriguera and His Hotel Biltmore Orchestra: Let's Have Another Cup Of Coffee [1932]
TTITLE17=Julia Gerity: Sittin' On A Rubbish Can [1931]
TTITLE18=Henry Hall and His Orchestra: Underneath The Arches [1932]
TTITLE19=Bing Crosby: Brother, Can You Spare A Dime? [1932]
TTITLE20=Freddy Martin and His Orchestra: Remember My Forgotten Man [1933]
TTITLE21=Alex Bartha and His Hotel Traymore Orchestra: It Must Be Swell To Be Laying Out Dead [1932]
EXTD=YEAR: 1998
EXTT0=
EXTT1=
EXTT2=
EXTT3=
EXTT4=
EXTT5=
EXTT6=
EXTT7=
EXTT8=
EXTT9=
EXTT10=
EXTT11=
EXTT12=
EXTT13=
EXTT14=
EXTT15=
EXTT16=
EXTT17=
EXTT18=
EXTT19=
EXTT20=
EXTT21=
PLAYORDER=
